<svg xmlns="http://www.w3.org/2000/svg" width="99.323" height="88.338" viewBox="0 0 99.323 88.338">
  <path id="Path_322" data-name="Path 322" d="M26.72-156.309l2.5-17.368q7.682.668,12.191-2.588a16.007,16.007,0,0,0,6.1-9.185,34.331,34.331,0,0,0,.584-13.443H26.72v-42.919H67.969v44.589q0,21.877-10.354,33.149T26.72-156.309Zm55.945,0,2.505-17.368q7.682.668,12.191-2.588a16.007,16.007,0,0,0,6.1-9.185,34.331,34.331,0,0,0,.584-13.443H82.665v-42.919h41.249v44.589q0,21.877-10.354,33.149T82.665-156.309Z" transform="translate(-25.591 242.813)" fill="none" stroke="#fff" stroke-width="2"/>
</svg>
