<svg xmlns="http://www.w3.org/2000/svg" width="13.333" height="13.333" viewBox="0 0 13.333 13.333">
  <g id="monetization_on" transform="translate(-1.333 -1.333)">
    <path id="Vector" d="M6.667,0a6.667,6.667,0,1,0,6.667,6.667A6.669,6.669,0,0,0,6.667,0Zm.94,10.727V12H5.827V10.713a2.48,2.48,0,0,1-2.18-2.267H4.953c.067.7.547,1.247,1.767,1.247,1.307,0,1.6-.653,1.6-1.06,0-.553-.293-1.073-1.78-1.427-1.653-.4-2.787-1.08-2.787-2.447A2.311,2.311,0,0,1,5.827,2.62V1.333h1.78v1.3a2.357,2.357,0,0,1,1.9,2.26H8.2c-.033-.74-.427-1.247-1.48-1.247-1,0-1.6.453-1.6,1.093,0,.56.433.927,1.78,1.273S9.687,6.94,9.687,8.62C9.68,9.84,8.767,10.507,7.607,10.727Z" transform="translate(1.333 1.333)" fill="#84818a"/>
  </g>
</svg>
