<svg xmlns="http://www.w3.org/2000/svg" width="61.949" height="13.019" viewBox="0 0 61.949 13.019">
  <path id="Strava_Logo" d="M10.877,7.37a2.986,2.986,0,0,1,.359,1.494v.029a3.608,3.608,0,0,1-.359,1.638,3.679,3.679,0,0,1-1.02,1.236,5.083,5.083,0,0,1-1.609.776,7.45,7.45,0,0,1-2.112.273,10.688,10.688,0,0,1-3.305-.489A7.335,7.335,0,0,1,.2,10.862L2.269,8.4A5.975,5.975,0,0,0,4.252,9.439a6.894,6.894,0,0,0,2.069.316,1.646,1.646,0,0,0,.762-.129.4.4,0,0,0,.23-.359V9.238c0-.172-.115-.3-.345-.417A5.373,5.373,0,0,0,5.7,8.477c-.647-.129-1.265-.287-1.854-.46A6.4,6.4,0,0,1,2.3,7.341,3.188,3.188,0,0,1,1.235,6.307,2.807,2.807,0,0,1,.818,4.74V4.712a3.683,3.683,0,0,1,.316-1.538,3.438,3.438,0,0,1,.948-1.236A4.509,4.509,0,0,1,3.62,1.1,6.687,6.687,0,0,1,5.732.8a9.545,9.545,0,0,1,2.946.4A6.871,6.871,0,0,1,10.949,2.4L9.066,5a5.828,5.828,0,0,0-1.739-.877A5.959,5.959,0,0,0,5.6,3.849a1.188,1.188,0,0,0-.632.129.375.375,0,0,0-.2.345v.029c0,.158.1.287.316.4A4.867,4.867,0,0,0,6.307,5.1a16.621,16.621,0,0,1,2.012.474,6.309,6.309,0,0,1,1.566.719A3.513,3.513,0,0,1,10.877,7.37Zm.144-3.075h3.406V12.6h3.866V4.295H21.7V1.019H11.021ZM55.913.3,49.691,12.6H53.4l2.515-4.972L58.442,12.6h3.707ZM38.582.3l6.237,12.3H41.112L38.6,7.629,36.082,12.6H29.156L26.971,9.3h-.819V12.6H22.287V1.019h5.619a7.608,7.608,0,0,1,2.558.359,4.217,4.217,0,0,1,1.609.963,3.269,3.269,0,0,1,.79,1.193,4.284,4.284,0,0,1,.259,1.552v.029A3.558,3.558,0,0,1,32.5,7.255a4.2,4.2,0,0,1-1.667,1.394l2.012,2.931ZM29.271,5.373a.933.933,0,0,0-.4-.833,1.814,1.814,0,0,0-1.078-.273H26.109v2.27h1.667a1.761,1.761,0,0,0,1.092-.3,1,1,0,0,0,.4-.833V5.373ZM49.777,1.019,47.248,6,44.719,1.019H41.011l6.237,12.3,6.222-12.3H49.777Z" transform="translate(-0.2 -0.3)" fill="#fff"/>
</svg>
