<svg xmlns="http://www.w3.org/2000/svg" width="99.323" height="88.338" viewBox="0 0 99.323 88.338">
  <path id="Path_321" data-name="Path 321" d="M123.914-240.981l-2.5,17.368q-7.682-.668-12.191,2.588a16.007,16.007,0,0,0-6.1,9.185,34.332,34.332,0,0,0-.584,13.443h21.376v42.919H82.665v-44.589q0-21.877,10.354-33.15T123.914-240.981Zm-55.945,0-2.505,17.368q-7.682-.668-12.191,2.588a16.007,16.007,0,0,0-6.1,9.185,34.332,34.332,0,0,0-.584,13.443H67.969v42.919H26.72v-44.589q0-21.877,10.354-33.15T67.969-240.981Z" transform="translate(-25.72 242.815)" fill="none" stroke="#fff" stroke-width="2"/>
</svg>
