<svg xmlns="http://www.w3.org/2000/svg" width="41.808" height="41.5" viewBox="0 0 41.808 41.5">
  <g id="Group_4890" data-name="Group 4890" transform="translate(-699.25 -563.25)">
    <path id="Path_545" data-name="Path 545" d="M914,800h12c10,0,14-4,14-14V774c0-10-4-14-14-14H914c-10,0-14,4-14,14v12C900,796,904,800,914,800Z" transform="translate(-200 -196)" fill="none" stroke="#9ea3ae" stroke-linecap="round" stroke-linejoin="round" stroke-width="1.5"/>
    <path id="Path_546" data-name="Path 546" d="M914,776a4,4,0,1,0-4-4A4,4,0,0,0,914,776Z" transform="translate(-200 -196)" fill="none" stroke="#9ea3ae" stroke-linecap="round" stroke-linejoin="round" stroke-width="1.5"/>
    <path id="Path_547" data-name="Path 547" d="M901.34,793.9l9.86-6.62a4.506,4.506,0,0,1,5.28.28l.66.58a4.459,4.459,0,0,0,5.64,0L931.1,781a4.459,4.459,0,0,1,5.64,0l3.26,2.8" transform="translate(-200 -196)" fill="none" stroke="#9ea3ae" stroke-linecap="round" stroke-linejoin="round" stroke-width="1.5"/>
  </g>
</svg>
