<svg xmlns="http://www.w3.org/2000/svg" width="11.667" height="8.333" viewBox="0 0 11.667 8.333">
  <g id="view_comfy" transform="translate(-4.167 -5.833)">
    <g id="ic_card" transform="translate(4.167 5.833)">
      <path id="Combined_Shape" data-name="Combined Shape" d="M3.333,0V1.667H5V0ZM0,0V1.667H1.667V0ZM6.667,0V1.667H8.333V0ZM10,0V1.667h1.667V0ZM3.333,3.333V5H5V3.333ZM0,3.333V5H1.667V3.333Zm6.667,0V5H8.333V3.333Zm3.333,0V5h1.667V3.333Zm-6.667,5V6.667H5V8.333ZM0,8.333V6.667H1.667V8.333Zm6.667,0V6.667H8.333V8.333Zm3.333,0V6.667h1.667V8.333Z" fill="#84818a" fill-rule="evenodd"/>
    </g>
  </g>
</svg>
